<?xml version="1.0" encoding="UTF-8" standalone="no"?>
<!DOCTYPE svg PUBLIC "-//W3C//DTD SVG 1.1//EN"
 "http://www.w3.org/Graphics/SVG/1.1/DTD/svg11.dtd">
<!-- Generated by graphviz version 2.38.0 (20140413.2041)
 -->
<!-- Title: Legend Pages: 1 -->
<svg width="2316pt" height="1967pt"
 viewBox="0.00 0.00 2316.36 1967.22" xmlns="http://www.w3.org/2000/svg" xmlns:xlink="http://www.w3.org/1999/xlink">
<g id="graph0" class="graph" transform="scale(1 1) rotate(0) translate(4 1963.22)">
<title>Legend</title>
<polygon fill="white" stroke="none" points="-4,4 -4,-1963.22 2312.36,-1963.22 2312.36,4 -4,4"/>
<!-- Positive Regular Mutation -->
<g id="node1" class="node"><title>Positive Regular Mutation</title>
<polygon fill="#ffffff" stroke="black" stroke-width="0.5" points="1812.27,-1254.54 1973.27,-1254.54 1973.27,-1290.54 1812.27,-1290.54 1812.27,-1254.54"/>
<polygon fill="none" stroke="black" points="1973.27,-1290.54 1812.27,-1290.54 1812.27,-1254.54 1973.27,-1254.54 1973.27,-1290.54"/>
<text text-anchor="middle" x="1892.77" y="-1268.84" font-family="Times New Roman,serif" font-size="14.00">Positive Regular Mutation</text>
</g>
<!-- Positive Post&#45;Threshold Mutation -->
<g id="node3" class="node"><title>Positive Post&#45;Threshold Mutation</title>
<polygon fill="lightgrey" stroke="black" stroke-width="0.5" points="1367.68,-1586.63 1750.68,-1586.63 1750.68,-1625.63 1367.68,-1625.63 1367.68,-1586.63"/>
<polygon fill="none" stroke="black" points="1750.68,-1625.63 1367.68,-1625.63 1367.68,-1586.63 1750.68,-1586.63 1750.68,-1625.63"/>
<text text-anchor="middle" x="1559.18" y="-1599.23" font-family="Times New Roman,serif" font-size="28.00">Positive Post&#45;Threshold Mutation</text>
</g>
<!-- Positive Regular Mutation&#45;&gt;Positive Post&#45;Threshold Mutation -->
<g id="edge2" class="edge"><title>Positive Regular Mutation&#45;&gt;Positive Post&#45;Threshold Mutation</title>
<path fill="none" stroke="green" d="M1874.36,-1290.95C1818.6,-1346.71 1651.36,-1513.95 1585.89,-1579.42"/>
<polygon fill="green" stroke="green" points="1581.61,-1589.36 1575.95,-1583.7 1581.61,-1578.04 1587.27,-1583.7 1581.61,-1589.36"/>
<polyline fill="none" stroke="green" points="1584.44,-1580.87 1585.85,-1579.46 "/>
<text text-anchor="middle" x="1705.62" y="-1438.99" font-family="Times New Roman,serif" font-size="14.00">Leads to</text>
</g>
<!-- Positive Slime Post&#45;Threshold Mutation -->
<g id="node4" class="node"><title>Positive Slime Post&#45;Threshold Mutation</title>
<polygon fill="greenyellow" stroke="black" stroke-width="0.5" points="1666.77,-1920.22 2118.77,-1920.22 2118.77,-1959.22 1666.77,-1959.22 1666.77,-1920.22"/>
<polygon fill="none" stroke="black" points="2118.77,-1959.22 1666.77,-1959.22 1666.77,-1920.22 2118.77,-1920.22 2118.77,-1959.22"/>
<text text-anchor="middle" x="1892.77" y="-1932.82" font-family="Times New Roman,serif" font-size="28.00">Positive Slime Post&#45;Threshold Mutation</text>
</g>
<!-- Positive Regular Mutation&#45;&gt;Positive Slime Post&#45;Threshold Mutation -->
<g id="edge4" class="edge"><title>Positive Regular Mutation&#45;&gt;Positive Slime Post&#45;Threshold Mutation</title>
<path fill="none" stroke="violet" stroke-dasharray="1,5" d="M1892.77,-1290.73C1892.77,-1382.48 1892.77,-1794.61 1892.77,-1909.75"/>
<polygon fill="violet" stroke="violet" points="1889.27,-1909.94 1892.77,-1919.94 1896.27,-1909.94 1889.27,-1909.94"/>
<text text-anchor="middle" x="1826.27" y="-1604.04" font-family="Times New Roman,serif" font-size="14.00">Additional Requirement</text>
</g>
<!-- Negative Regular Mutation -->
<g id="node2" class="node"><title>Negative Regular Mutation</title>
<polygon fill="#ffffff" stroke="black" stroke-width="0.5" stroke-dasharray="1,5" points="2144.36,-1588.13 2308.36,-1588.13 2308.36,-1624.13 2144.36,-1624.13 2144.36,-1588.13"/>
<polygon fill="none" stroke="black" stroke-dasharray="1,5" points="2308.36,-1624.13 2144.36,-1624.13 2144.36,-1588.13 2308.36,-1588.13 2308.36,-1624.13"/>
<text text-anchor="middle" x="2226.36" y="-1602.43" font-family="Times New Roman,serif" font-size="14.00">Negative Regular Mutation</text>
</g>
<!-- Negative Regular Mutation&#45;&gt;Positive Regular Mutation -->
<g id="edge1" class="edge"><title>Negative Regular Mutation&#45;&gt;Positive Regular Mutation</title>
<path fill="none" stroke="black" d="M2207.95,-1587.72C2151.9,-1531.67 1983.26,-1363.03 1918.49,-1298.26"/>
<polygon fill="black" stroke="black" points="1920.67,-1295.49 1911.12,-1290.89 1915.72,-1300.44 1920.67,-1295.49"/>
<text text-anchor="middle" x="2031.22" y="-1446.79" font-family="Times New Roman,serif" font-size="14.00">Changes to</text>
</g>
<!-- Negative Regular Mutation&#45;&gt;Positive Slime Post&#45;Threshold Mutation -->
<g id="edge5" class="edge"><title>Negative Regular Mutation&#45;&gt;Positive Slime Post&#45;Threshold Mutation</title>
<path fill="none" stroke="red" d="M2207.95,-1624.54C2150.04,-1682.45 1971.89,-1860.59 1912.37,-1920.12"/>
<text text-anchor="middle" x="2037.66" y="-1776.13" font-family="Times New Roman,serif" font-size="14.00">Cancels</text>
</g>
<!-- Positive Post&#45;Threshold Mutation&#45;&gt;Positive Slime Post&#45;Threshold Mutation -->
<g id="edge3" class="edge"><title>Positive Post&#45;Threshold Mutation&#45;&gt;Positive Slime Post&#45;Threshold Mutation</title>
<path fill="none" stroke="blue" stroke-dasharray="1,5" d="M1579.05,-1626C1636.06,-1683.01 1800.28,-1847.23 1865.55,-1912.5"/>
<polygon fill="blue" stroke="blue" points="1863.46,-1915.36 1873.01,-1919.95 1868.41,-1910.41 1863.46,-1915.36"/>
<text text-anchor="middle" x="1697.3" y="-1773.05" font-family="Times New Roman,serif" font-size="14.00">Requires</text>
</g>
<!-- Regular Mutation of Slime and Chimera -->
<g id="node5" class="node"><title>Regular Mutation of Slime and Chimera</title>
<polygon fill="greenyellow" stroke="black" stroke-width="0.5" points="1482.27,-0.127918 1600.77,-0.127918 1600.77,-36.1279 1482.27,-36.1279 1482.27,-0.127918"/>
<polygon fill="indianred" stroke="black" stroke-width="0.5" points="1600.77,-0.127918 1719.27,-0.127918 1719.27,-36.1279 1600.77,-36.1279 1600.77,-0.127918"/>
<polygon fill="none" stroke="black" points="1719.27,-36.1279 1482.27,-36.1279 1482.27,-0.127918 1719.27,-0.127918 1719.27,-36.1279"/>
<text text-anchor="middle" x="1600.77" y="-14.4279" font-family="Times New Roman,serif" font-size="14.00">Regular Mutation of Slime and Chimera</text>
</g>
<!-- Category Legend -->
<g id="node6" class="node"><title>Category Legend</title>
<polygon fill="lightgrey" stroke="none" stroke-width="0.5" points="800.27,-754.128 913.27,-754.128 913.27,-790.128 800.27,-790.128 800.27,-754.128"/>
<polygon fill="none" stroke="none" points="913.27,-790.128 800.27,-790.128 800.27,-754.128 913.27,-754.128 913.27,-790.128"/>
<text text-anchor="middle" x="856.77" y="-768.428" font-family="Times New Roman,serif" font-size="14.00">Category Legend</text>
</g>
<!-- LIZARD -->
<g id="node7" class="node"><title>LIZARD</title>
<polygon fill="khaki" stroke="black" points="1613.08,-790.128 1551.41,-772.128 1613.08,-754.128 1674.75,-772.128 1613.08,-790.128"/>
<text text-anchor="middle" x="1613.08" y="-768.428" font-family="Times New Roman,serif" font-size="14.00">LIZARD</text>
</g>
<!-- Category Legend&#45;&gt;LIZARD -->
<g id="edge6" class="edge"><title>Category Legend&#45;&gt;LIZARD</title>
<path fill="none" stroke="black" stroke-dasharray="5,2" d="M913.307,-772.128C1051.85,-772.128 1407.45,-772.128 1551.3,-772.128"/>
</g>
<!-- BIRD -->
<g id="node8" class="node"><title>BIRD</title>
<polygon fill="deepskyblue" stroke="black" points="1591.87,-967.988 1545.95,-949.988 1591.87,-931.988 1637.78,-949.988 1591.87,-967.988"/>
<text text-anchor="middle" x="1591.87" y="-946.288" font-family="Times New Roman,serif" font-size="14.00">BIRD</text>
</g>
<!-- Category Legend&#45;&gt;BIRD -->
<g id="edge7" class="edge"><title>Category Legend&#45;&gt;BIRD</title>
<path fill="none" stroke="black" stroke-dasharray="5,2" d="M913.536,-785.863C1061.38,-821.633 1454.38,-916.723 1563.45,-943.111"/>
</g>
<!-- FISH -->
<g id="node9" class="node"><title>FISH</title>
<polygon fill="aquamarine" stroke="black" points="1537.63,-1119.42 1494.23,-1101.42 1537.63,-1083.42 1581.03,-1101.42 1537.63,-1119.42"/>
<text text-anchor="middle" x="1537.63" y="-1097.72" font-family="Times New Roman,serif" font-size="14.00">FISH</text>
</g>
<!-- Category Legend&#45;&gt;FISH -->
<g id="edge8" class="edge"><title>Category Legend&#45;&gt;FISH</title>
<path fill="none" stroke="black" stroke-dasharray="5,2" d="M894.346,-790.301C1019.94,-851.042 1422.54,-1045.76 1517.45,-1091.66"/>
</g>
<!-- BEAST -->
<g id="node10" class="node"><title>BEAST</title>
<polygon fill="tomato" stroke="black" points="1446.31,-1263.88 1390.17,-1245.88 1446.31,-1227.88 1502.45,-1245.88 1446.31,-1263.88"/>
<text text-anchor="middle" x="1446.31" y="-1242.18" font-family="Times New Roman,serif" font-size="14.00">BEAST</text>
</g>
<!-- Category Legend&#45;&gt;BEAST -->
<g id="edge9" class="edge"><title>Category Legend&#45;&gt;BEAST</title>
<path fill="none" stroke="black" stroke-dasharray="5,2" d="M879.52,-790.409C975.696,-867.697 1347.76,-1166.68 1430.11,-1232.86"/>
</g>
<!-- FELINE -->
<g id="node11" class="node"><title>FELINE</title>
<polygon fill="sandybrown" stroke="black" points="1312.52,-1393.7 1253.87,-1375.7 1312.52,-1357.7 1371.17,-1375.7 1312.52,-1393.7"/>
<text text-anchor="middle" x="1312.52" y="-1372" font-family="Times New Roman,serif" font-size="14.00">FELINE</text>
</g>
<!-- Category Legend&#45;&gt;FELINE -->
<g id="edge10" class="edge"><title>Category Legend&#45;&gt;FELINE</title>
<path fill="none" stroke="black" stroke-dasharray="5,2" d="M870.41,-790.192C938.391,-880.222 1239.8,-1279.39 1301.47,-1361.07"/>
</g>
<!-- LUPINE -->
<g id="node12" class="node"><title>LUPINE</title>
<polygon fill="#a9a9a9" stroke="black" points="1147.65,-1488.26 1087.66,-1470.26 1147.65,-1452.26 1207.64,-1470.26 1147.65,-1488.26"/>
<text text-anchor="middle" x="1147.65" y="-1466.56" font-family="Times New Roman,serif" font-size="14.00">LUPINE</text>
</g>
<!-- Category Legend&#45;&gt;LUPINE -->
<g id="edge11" class="edge"><title>Category Legend&#45;&gt;LUPINE</title>
<path fill="none" stroke="black" stroke-dasharray="5,2" d="M864.401,-790.443C905.679,-889.514 1101.84,-1360.31 1140.88,-1454.02"/>
</g>
<!-- URSINE -->
<g id="node13" class="node"><title>URSINE</title>
<polygon fill="brown" stroke="black" points="961.675,-1539.13 900.007,-1521.13 961.675,-1503.13 1023.34,-1521.13 961.675,-1539.13"/>
<text text-anchor="middle" x="961.675" y="-1517.43" font-family="Times New Roman,serif" font-size="14.00">URSINE</text>
</g>
<!-- Category Legend&#45;&gt;URSINE -->
<g id="edge12" class="edge"><title>Category Legend&#45;&gt;URSINE</title>
<path fill="none" stroke="black" stroke-dasharray="5,2" d="M859.312,-790.271C873.721,-893.15 945.016,-1402.19 959.213,-1503.55"/>
</g>
<!-- CATTLE -->
<g id="node14" class="node"><title>CATTLE</title>
<polygon fill="peru" stroke="black" points="763.409,-1540.65 698.388,-1522.65 763.409,-1504.65 828.43,-1522.65 763.409,-1540.65"/>
<text text-anchor="middle" x="763.409" y="-1518.95" font-family="Times New Roman,serif" font-size="14.00">CATTLE</text>
</g>
<!-- Category Legend&#45;&gt;CATTLE -->
<g id="edge13" class="edge"><title>Category Legend&#45;&gt;CATTLE</title>
<path fill="none" stroke="black" stroke-dasharray="5,2" d="M854.509,-790.308C841.685,-893.397 778.234,-1403.47 765.599,-1505.04"/>
</g>
<!-- INSECT -->
<g id="node15" class="node"><title>INSECT</title>
<polygon fill="yellow" stroke="black" points="572.411,-1490.94 511.582,-1472.94 572.411,-1454.94 633.24,-1472.94 572.411,-1490.94"/>
<text text-anchor="middle" x="572.411" y="-1469.24" font-family="Times New Roman,serif" font-size="14.00">INSECT</text>
</g>
<!-- Category Legend&#45;&gt;INSECT -->
<g id="edge14" class="edge"><title>Category Legend&#45;&gt;INSECT</title>
<path fill="none" stroke="black" stroke-dasharray="5,2" d="M849.455,-790.156C809.424,-888.816 617.288,-1362.34 579.041,-1456.6"/>
</g>
<!-- PLANT -->
<g id="node16" class="node"><title>PLANT</title>
<polygon fill="forestgreen" stroke="black" points="407.404,-1398.46 350.429,-1380.46 407.404,-1362.46 464.38,-1380.46 407.404,-1398.46"/>
<text text-anchor="middle" x="407.404" y="-1376.76" font-family="Times New Roman,serif" font-size="14.00">PLANT</text>
</g>
<!-- Category Legend&#45;&gt;PLANT -->
<g id="edge15" class="edge"><title>Category Legend&#45;&gt;PLANT</title>
<path fill="none" stroke="black" stroke-dasharray="5,2" d="M843.322,-790.334C776.292,-881.076 479.104,-1283.4 418.295,-1365.72"/>
</g>
<!-- SLIME -->
<g id="node17" class="node"><title>SLIME</title>
<polygon fill="greenyellow" stroke="black" points="275.179,-1273.61 222.056,-1255.61 275.179,-1237.61 328.302,-1255.61 275.179,-1273.61"/>
<text text-anchor="middle" x="275.179" y="-1251.91" font-family="Times New Roman,serif" font-size="14.00">SLIME</text>
</g>
<!-- Category Legend&#45;&gt;SLIME -->
<g id="edge16" class="edge"><title>Category Legend&#45;&gt;SLIME</title>
<path fill="none" stroke="black" stroke-dasharray="5,2" d="M835.033,-790.199C741.101,-868.284 371.192,-1175.79 290.695,-1242.71"/>
</g>
<!-- TROGLOBITE -->
<g id="node18" class="node"><title>TROGLOBITE</title>
<polygon fill="slategray" stroke="black" points="159.878,-1083.97 62.517,-1065.97 159.878,-1047.97 257.24,-1065.97 159.878,-1083.97"/>
<text text-anchor="middle" x="159.878" y="-1062.27" font-family="Times New Roman,serif" font-size="14.00">TROGLOBITE</text>
</g>
<!-- Category Legend&#45;&gt;TROGLOBITE -->
<g id="edge17" class="edge"><title>Category Legend&#45;&gt;TROGLOBITE</title>
<path fill="none" stroke="black" stroke-dasharray="5,2" d="M813.964,-790.177C684.701,-844.681 300.437,-1006.71 189.92,-1053.3"/>
</g>
<!-- CEPHALOPOD -->
<g id="node19" class="node"><title>CEPHALOPOD</title>
<polygon fill="purple" stroke="black" points="101.107,-821.37 -0.107412,-803.37 101.107,-785.37 202.322,-803.37 101.107,-821.37"/>
<text text-anchor="middle" x="101.107" y="-799.67" font-family="Times New Roman,serif" font-size="14.00">CEPHALOPOD</text>
</g>
<!-- Category Legend&#45;&gt;CEPHALOPOD -->
<g id="edge18" class="edge"><title>Category Legend&#45;&gt;CEPHALOPOD</title>
<path fill="none" stroke="black" stroke-dasharray="5,2" d="M799.973,-774.476C667.569,-779.95 337.973,-793.577 183.478,-799.965"/>
</g>
<!-- SPIDER -->
<g id="node20" class="node"><title>SPIDER</title>
<polygon fill="orange" stroke="black" points="127.172,-590.906 67.1809,-572.906 127.172,-554.906 187.164,-572.906 127.172,-590.906"/>
<text text-anchor="middle" x="127.172" y="-569.206" font-family="Times New Roman,serif" font-size="14.00">SPIDER</text>
</g>
<!-- Category Legend&#45;&gt;SPIDER -->
<g id="edge19" class="edge"><title>Category Legend&#45;&gt;SPIDER</title>
<path fill="none" stroke="black" stroke-dasharray="5,2" d="M800.127,-756.661C654.653,-716.938 271.44,-612.299 158.761,-581.531"/>
</g>
<!-- RAT -->
<g id="node21" class="node"><title>RAT</title>
<polygon fill="grey" stroke="black" points="191.402,-430.562 150.177,-412.562 191.402,-394.562 232.627,-412.562 191.402,-430.562"/>
<text text-anchor="middle" x="191.402" y="-408.862" font-family="Times New Roman,serif" font-size="14.00">RAT</text>
</g>
<!-- Category Legend&#45;&gt;RAT -->
<g id="edge20" class="edge"><title>Category Legend&#45;&gt;RAT</title>
<path fill="none" stroke="black" stroke-dasharray="5,2" d="M823.319,-754.051C703.941,-689.539 301.135,-471.862 209.886,-422.551"/>
</g>
<!-- MEDICAL -->
<g id="node22" class="node"><title>MEDICAL</title>
<polygon fill="red" stroke="black" points="298.946,-279.409 226.218,-261.409 298.946,-243.409 371.673,-261.409 298.946,-279.409"/>
<text text-anchor="middle" x="298.946" y="-257.709" font-family="Times New Roman,serif" font-size="14.00">MEDICAL</text>
</g>
<!-- Category Legend&#45;&gt;MEDICAL -->
<g id="edge21" class="edge"><title>Category Legend&#45;&gt;MEDICAL</title>
<path fill="none" stroke="black" stroke-dasharray="5,2" d="M836.917,-753.951C748.706,-673.189 393.181,-347.686 314.439,-275.594"/>
</g>
<!-- ALPHA -->
<g id="node23" class="node"><title>ALPHA</title>
<polygon fill="skyblue" stroke="black" points="453.177,-150.507 396.201,-132.507 453.177,-114.507 510.152,-132.507 453.177,-150.507"/>
<text text-anchor="middle" x="453.177" y="-128.807" font-family="Times New Roman,serif" font-size="14.00">ALPHA</text>
</g>
<!-- Category Legend&#45;&gt;ALPHA -->
<g id="edge22" class="edge"><title>Category Legend&#45;&gt;ALPHA</title>
<path fill="none" stroke="black" stroke-dasharray="5,2" d="M845.342,-754.016C786.333,-660.497 516.804,-233.344 462.665,-147.543"/>
</g>
<!-- ELFA -->
<g id="node24" class="node"><title>ELFA</title>
<polygon fill="#90ee90" stroke="black" points="611.434,-74.7171 564.679,-56.7171 611.434,-38.7171 658.188,-56.7171 611.434,-74.7171"/>
<text text-anchor="middle" x="611.434" y="-53.0171" font-family="Times New Roman,serif" font-size="14.00">ELFA</text>
</g>
<!-- Category Legend&#45;&gt;ELFA -->
<g id="edge23" class="edge"><title>Category Legend&#45;&gt;ELFA</title>
<path fill="none" stroke="black" stroke-dasharray="5,2" d="M850.583,-754.086C816.249,-653.966 649.51,-167.75 616.952,-72.8097"/>
</g>
<!-- CHIMERA -->
<g id="node25" class="node"><title>CHIMERA</title>
<polygon fill="indianred" stroke="black" points="799.378,-36 725.813,-18 799.378,-0 872.943,-18 799.378,-36"/>
<text text-anchor="middle" x="799.378" y="-14.3" font-family="Times New Roman,serif" font-size="14.00">CHIMERA</text>
</g>
<!-- Category Legend&#45;&gt;CHIMERA -->
<g id="edge24" class="edge"><title>Category Legend&#45;&gt;CHIMERA</title>
<path fill="none" stroke="black" stroke-dasharray="5,2" d="M855.38,-753.86C847.497,-650.277 808.492,-137.751 800.725,-35.6935"/>
</g>
<!-- RAPTOR -->
<g id="node26" class="node"><title>RAPTOR</title>
<polygon fill="green" stroke="black" points="1011.77,-49.8721 943.732,-31.8721 1011.77,-13.8721 1079.8,-31.8721 1011.77,-49.8721"/>
<text text-anchor="middle" x="1011.77" y="-28.1721" font-family="Times New Roman,serif" font-size="14.00">RAPTOR</text>
</g>
<!-- Category Legend&#45;&gt;RAPTOR -->
<g id="edge25" class="edge"><title>Category Legend&#45;&gt;RAPTOR</title>
<path fill="none" stroke="black" stroke-dasharray="5,2" d="M860.602,-753.829C882.069,-651.302 987.205,-149.18 1008.14,-49.2039"/>
</g>
<!-- MOUSE -->
<g id="node27" class="node"><title>MOUSE</title>
<polygon fill="lightgrey" stroke="black" points="1199.65,-116.009 1139.66,-98.0087 1199.65,-80.0087 1259.64,-98.0087 1199.65,-116.009"/>
<text text-anchor="middle" x="1199.65" y="-94.3087" font-family="Times New Roman,serif" font-size="14.00">MOUSE</text>
</g>
<!-- Category Legend&#45;&gt;MOUSE -->
<g id="edge26" class="edge"><title>Category Legend&#45;&gt;MOUSE</title>
<path fill="none" stroke="black" stroke-dasharray="5,2" d="M865.942,-754.097C914.984,-657.676 1145.76,-203.96 1191.69,-113.661"/>
</g>
<!-- MYCUS -->
<g id="node28" class="node"><title>MYCUS</title>
<polygon fill="violet" stroke="black" points="1358.27,-223.999 1297.44,-205.999 1358.27,-187.999 1419.1,-205.999 1358.27,-223.999"/>
<text text-anchor="middle" x="1358.27" y="-202.299" font-family="Times New Roman,serif" font-size="14.00">MYCUS</text>
</g>
<!-- Category Legend&#45;&gt;MYCUS -->
<g id="edge27" class="edge"><title>Category Legend&#45;&gt;MYCUS</title>
<path fill="none" stroke="black" stroke-dasharray="5,2" d="M872.888,-753.933C949.59,-667.346 1276.76,-298.007 1345.55,-220.36"/>
</g>
<!-- MARLOSS -->
<g id="node29" class="node"><title>MARLOSS</title>
<polygon fill="cyan" stroke="black" points="1493.68,-382.268 1417.6,-364.268 1493.68,-346.268 1569.76,-364.268 1493.68,-382.268"/>
<text text-anchor="middle" x="1493.68" y="-360.568" font-family="Times New Roman,serif" font-size="14.00">MARLOSS</text>
</g>
<!-- Category Legend&#45;&gt;MARLOSS -->
<g id="edge28" class="edge"><title>Category Legend&#45;&gt;MARLOSS</title>
<path fill="none" stroke="black" stroke-dasharray="5,2" d="M884.959,-754.076C992.933,-684.933 1378.83,-437.812 1472.89,-377.578"/>
</g>
<!-- NEUTRAL -->
<g id="node30" class="node"><title>NEUTRAL</title>
<polygon fill="#ffffff" stroke="black" points="1584.65,-584.706 1510.24,-566.706 1584.65,-548.706 1659.05,-566.706 1584.65,-584.706"/>
<text text-anchor="middle" x="1584.65" y="-563.006" font-family="Times New Roman,serif" font-size="14.00">NEUTRAL</text>
</g>
<!-- Category Legend&#45;&gt;NEUTRAL -->
<g id="edge29" class="edge"><title>Category Legend&#45;&gt;NEUTRAL</title>
<path fill="none" stroke="black" stroke-dasharray="5,2" d="M913.28,-756.18C1057.08,-715.598 1433.7,-609.306 1549.96,-576.496"/>
</g>
</g>
</svg>
